# 5x5 Checkerboard
mtllib resources/2d/checkerboard.mtl

# Row 1 (y = -0.5 to -0.3)
v -0.50 -0.50 0.0
v -0.30 -0.50 0.0
v -0.30 -0.30 0.0
v -0.50 -0.30 0.0

v -0.30 -0.50 0.0
v -0.10 -0.50 0.0
v -0.10 -0.30 0.0
v -0.30 -0.30 0.0

v -0.10 -0.50 0.0
v  0.10 -0.50 0.0
v  0.10 -0.30 0.0
v -0.10 -0.30 0.0

v  0.10 -0.50 0.0
v  0.30 -0.50 0.0
v  0.30 -0.30 0.0
v  0.10 -0.30 0.0

v  0.30 -0.50 0.0
v  0.50 -0.50 0.0
v  0.50 -0.30 0.0
v  0.30 -0.30 0.0

# Row 2 (y = -0.3 to -0.1)
v -0.50 -0.30 0.0
v -0.30 -0.30 0.0
v -0.30 -0.10 0.0
v -0.50 -0.10 0.0

v -0.30 -0.30 0.0
v -0.10 -0.30 0.0
v -0.10 -0.10 0.0
v -0.30 -0.10 0.0

v -0.10 -0.30 0.0
v  0.10 -0.30 0.0
v  0.10 -0.10 0.0
v -0.10 -0.10 0.0

v  0.10 -0.30 0.0
v  0.30 -0.30 0.0
v  0.30 -0.10 0.0
v  0.10 -0.10 0.0

v  0.30 -0.30 0.0
v  0.50 -0.30 0.0
v  0.50 -0.10 0.0
v  0.30 -0.10 0.0

# Row 3 (y = -0.1 to 0.1)
v -0.50 -0.10 0.0
v -0.30 -0.10 0.0
v -0.30  0.10 0.0
v -0.50  0.10 0.0

v -0.30 -0.10 0.0
v -0.10 -0.10 0.0
v -0.10  0.10 0.0
v -0.30  0.10 0.0

v -0.10 -0.10 0.0
v  0.10 -0.10 0.0
v  0.10  0.10 0.0
v -0.10  0.10 0.0

v  0.10 -0.10 0.0
v  0.30 -0.10 0.0
v  0.30  0.10 0.0
v  0.10  0.10 0.0

v  0.30 -0.10 0.0
v  0.50 -0.10 0.0
v  0.50  0.10 0.0
v  0.30  0.10 0.0

# Row 4 (y = 0.1 to 0.3)
v -0.50  0.10 0.0
v -0.30  0.10 0.0
v -0.30  0.30 0.0
v -0.50  0.30 0.0

v -0.30  0.10 0.0
v -0.10  0.10 0.0
v -0.10  0.30 0.0
v -0.30  0.30 0.0

v -0.10  0.10 0.0
v  0.10  0.10 0.0
v  0.10  0.30 0.0
v -0.10  0.30 0.0

v  0.10  0.10 0.0
v  0.30  0.10 0.0
v  0.30  0.30 0.0
v  0.10  0.30 0.0

v  0.30  0.10 0.0
v  0.50  0.10 0.0
v  0.50  0.30 0.0
v  0.30  0.30 0.0

# Row 5 (y = 0.3 to 0.5)
v -0.50  0.30 0.0
v -0.30  0.30 0.0
v -0.30  0.50 0.0
v -0.50  0.50 0.0

v -0.30  0.30 0.0
v -0.10  0.30 0.0
v -0.10  0.50 0.0
v -0.30  0.50 0.0

v -0.10  0.30 0.0
v  0.10  0.30 0.0
v  0.10  0.50 0.0
v -0.10  0.50 0.0

v  0.10  0.30 0.0
v  0.30  0.30 0.0
v  0.30  0.50 0.0
v  0.10  0.50 0.0

v  0.30  0.30 0.0
v  0.50  0.30 0.0
v  0.50  0.50 0.0
v  0.30  0.50 0.0

# Faces (25 squares, each 2 triangles)
usemtl black
f 1 2 3
f 1 3 4

usemtl white
f 5 6 7
f 5 7 8

usemtl black
f 9 10 11
f 9 11 12

usemtl white
f 13 14 15
f 13 15 16

usemtl black
f 17 18 19
f 17 19 20

usemtl white
f 21 22 23
f 21 23 24

usemtl black
f 25 26 27
f 25 27 28

usemtl white
f 29 30 31
f 29 31 32

usemtl black
f 33 34 35
f 33 35 36

usemtl white
f 37 38 39
f 37 39 40

usemtl black
f 41 42 43
f 41 43 44

usemtl white
f 45 46 47
f 45 47 48

usemtl black
f 49 50 51
f 49 51 52

usemtl white
f 53 54 55
f 53 55 56

usemtl black
f 57 58 59
f 57 59 60

usemtl white
f 61 62 63
f 61 63 64

usemtl black
f 65 66 67
f 65 67 68

usemtl white
f 69 70 71
f 69 71 72

usemtl black
f 73 74 75
f 73 75 76

usemtl white
f 77 78 79
f 77 79 80

usemtl black
f 81 82 83
f 81 83 84

usemtl white
f 85 86 87
f 85 87 88

usemtl black
f 89 90 91
f 89 91 92

usemtl white
f 93 94 95
f 93 95 96

usemtl black
f 97 98 99
f 97 99 100
